<svg id="Capa_1" data-name="Capa 1" xmlns="http://www.w3.org/2000/svg" width="98.64" height="98.64" viewBox="0 0 98.64 98.64">
  <defs>
    <style>
      .cls-1 {
        fill: #0d78f2;
      }
    </style>
  </defs>
  <title>icon</title>
  <g>
    <path class="cls-1" d="M54.73,53.09l-4,3.66V45.51a1,1,0,0,0-2.1,0V56.77l-4-3.66a1.1,1.1,0,0,0-1.49.07h0a1,1,0,0,0,.1,1.47L49,59.89a1.06,1.06,0,0,0,.7.26.91.91,0,0,0,.7-.27l5.75-5.23h0a1.05,1.05,0,0,0,.08-1.48A1.12,1.12,0,0,0,54.73,53.09Z" transform="translate(-0.38 -0.38)"/>
    <path class="cls-1" d="M49.69.38A49.32,49.32,0,1,0,99,49.69,49.31,49.31,0,0,0,49.69.38ZM63.28,65.91H37.65a10.46,10.46,0,0,1-1-20.88,13.08,13.08,0,0,1,13-11.55,11.67,11.67,0,0,1,1.56.1A13.06,13.06,0,0,1,62.65,48.12h.63a8.9,8.9,0,0,1,0,17.79Z" transform="translate(-0.38 -0.38)"/>
  </g>
</svg>
