<svg id="Capa_1" data-name="Capa 1" xmlns="http://www.w3.org/2000/svg" width="98.42" height="71" viewBox="0 0 98.42 71">
  <title>icon-mask</title>
  <path d="M49.48,14A28.62,28.62,0,0,0,21,39.3,22.91,22.91,0,0,0,23.14,85H79.25a19.47,19.47,0,0,0,0-38.94H77.89a28.64,28.64,0,0,0-25-31.86A30.17,30.17,0,0,0,49.48,14Zm0,24a2.3,2.3,0,0,1,2.29,2.29V65l8.77-8a2.42,2.42,0,0,1,3.25.15,2.29,2.29,0,0,1-.16,3.23l0,0L51,71.8a2,2,0,0,1-1.53.61,2.46,2.46,0,0,1-1.54-.57L35.34,60.39a2.31,2.31,0,0,1-.2-3.24l0,0A2.39,2.39,0,0,1,38.41,57l8.78,8V40.34A2.29,2.29,0,0,1,49.48,38.05Z" transform="translate(-0.29 -14.01)"/>
</svg>
